<mxfile host="65bd71144e">
    <diagram name="UCdetail-10: System Administration Module" id="ucdetail-10">
        <mxGraphModel dx="882" dy="712" grid="1" gridSize="10" guides="1" tooltips="1" connect="1" arrows="1" fold="1" page="1" pageScale="1" pageWidth="1200" pageHeight="800" math="0" shadow="0">
            <root>
                <mxCell id="0"/>
                <mxCell id="1" parent="0"/>
                <mxCell id="title" value="UCdetail-10: System Administration Module" style="text;html=1;align=center;verticalAlign=middle;whiteSpace=wrap;rounded=0;fontSize=18;fontStyle=1;fillColor=#cf1322;fontColor=#ffffff" parent="1" vertex="1">
                    <mxGeometry x="200" y="20" width="800" height="40" as="geometry"/>
                </mxCell>
                <mxCell id="system-boundary" value="System Administration Module" style="rounded=1;whiteSpace=wrap;html=1;fontSize=14;fontStyle=1;fillColor=#fff1f0;strokeColor=#cf1322;strokeWidth=2;verticalAlign=top" parent="1" vertex="1">
                    <mxGeometry x="150" y="80" width="900" height="650" as="geometry"/>
                </mxCell>
                <mxCell id="system-admin" value="System Admin" style="shape=umlActor;verticalLabelPosition=bottom;verticalAlign=top;html=1;outlineConnect=0;fontSize=12;fillColor=#ffd6cc;strokeColor=#d79b00" parent="1" vertex="1">
                    <mxGeometry x="50" y="300" width="40" height="80" as="geometry"/>
                </mxCell>
                <mxCell id="database-server" value="Database Server" style="shape=umlActor;verticalLabelPosition=bottom;verticalAlign=top;html=1;outlineConnect=0;fontSize=10;fillColor=#fff2cc;strokeColor=#d6b656" parent="1" vertex="1">
                    <mxGeometry x="1100" y="405" width="40" height="80" as="geometry"/>
                </mxCell>
                <mxCell id="monitoring-system" value="Monitoring System" style="shape=umlActor;verticalLabelPosition=bottom;verticalAlign=top;html=1;outlineConnect=0;fontSize=10;fillColor=#dae8fc;strokeColor=#6c8ebf" parent="1" vertex="1">
                    <mxGeometry x="1100" y="155" width="40" height="80" as="geometry"/>
                </mxCell>
                <mxCell id="manage-users" value="Manage User Accounts" style="ellipse;whiteSpace=wrap;html=1;fontSize=11;fillColor=#ffd6cc;strokeColor=#d79b00;fontStyle=1" parent="1" vertex="1">
                    <mxGeometry x="170" y="160" width="120" height="70" as="geometry"/>
                </mxCell>
                <mxCell id="monitor-system" value="Monitor System Performance" style="ellipse;whiteSpace=wrap;html=1;fontSize=11;fillColor=#ffd6cc;strokeColor=#d79b00" parent="1" vertex="1">
                    <mxGeometry x="170" y="350" width="120" height="70" as="geometry"/>
                </mxCell>
                <mxCell id="manage-database" value="Manage Database Operations" style="ellipse;whiteSpace=wrap;html=1;fontSize=11;fillColor=#ffd6cc;strokeColor=#d79b00" parent="1" vertex="1">
                    <mxGeometry x="170" y="440" width="120" height="70" as="geometry"/>
                </mxCell>
                <mxCell id="configure-system" value="Configure System Settings" style="ellipse;whiteSpace=wrap;html=1;fontSize=11;fillColor=#ffd6cc;strokeColor=#d79b00" parent="1" vertex="1">
                    <mxGeometry x="170" y="260" width="120" height="70" as="geometry"/>
                </mxCell>
                <mxCell id="security-management" value="Security Management" style="ellipse;whiteSpace=wrap;html=1;fontSize=11;fillColor=#ffd6cc;strokeColor=#d79b00" parent="1" vertex="1">
                    <mxGeometry x="170" y="540" width="120" height="70" as="geometry"/>
                </mxCell>
                <mxCell id="backup-system" value="Backup System Data" style="ellipse;whiteSpace=wrap;html=1;fontSize=10;fillColor=#f0f9ff;strokeColor=#1890ff" parent="1" vertex="1">
                    <mxGeometry x="360" y="445" width="110" height="60" as="geometry"/>
                </mxCell>
                <mxCell id="generate-reports" value="Generate System Reports" style="ellipse;whiteSpace=wrap;html=1;fontSize=10;fillColor=#f0f9ff;strokeColor=#1890ff" parent="1" vertex="1">
                    <mxGeometry x="415" y="165" width="110" height="60" as="geometry"/>
                </mxCell>
                <mxCell id="maintain-logs" value="Maintain System Logs" style="ellipse;whiteSpace=wrap;html=1;fontSize=10;fillColor=#fff7e6;strokeColor=#d48806" parent="1" vertex="1">
                    <mxGeometry x="770" y="415" width="110" height="60" as="geometry"/>
                </mxCell>
                <mxCell id="update-system" value="Update System Components" style="ellipse;whiteSpace=wrap;html=1;fontSize=10;fillColor=#e1d5e7;strokeColor=#9673a6" parent="1" vertex="1">
                    <mxGeometry x="175" y="630" width="110" height="60" as="geometry"/>
                </mxCell>
                <mxCell id="disaster-recovery" value="Disaster Recovery Management" style="ellipse;whiteSpace=wrap;html=1;fontSize=10;fillColor=#fff1f0;strokeColor=#ff4d4f" parent="1" vertex="1">
                    <mxGeometry x="550" y="440" width="110" height="60" as="geometry"/>
                </mxCell>
                <mxCell id="performance-tuning" value="Performance Tuning" style="ellipse;whiteSpace=wrap;html=1;fontSize=10;fillColor=#fff1f0;strokeColor=#ff4d4f" parent="1" vertex="1">
                    <mxGeometry x="580" y="355" width="110" height="60" as="geometry"/>
                </mxCell>
                <mxCell id="capacity-planning" value="Capacity Planning" style="ellipse;whiteSpace=wrap;html=1;fontSize=10;fillColor=#fff1f0;strokeColor=#ff4d4f" parent="1" vertex="1">
                    <mxGeometry x="440" y="390" width="110" height="60" as="geometry"/>
                </mxCell>
                <mxCell id="audit-compliance" value="Audit &amp; Compliance" style="ellipse;whiteSpace=wrap;html=1;fontSize=10;fillColor=#fff1f0;strokeColor=#ff4d4f" parent="1" vertex="1">
                    <mxGeometry x="630" y="285" width="110" height="60" as="geometry"/>
                </mxCell>
                <mxCell id="automation-scripts" value="Automation Scripts Management" style="ellipse;whiteSpace=wrap;html=1;fontSize=10;fillColor=#fff1f0;strokeColor=#ff4d4f" parent="1" vertex="1">
                    <mxGeometry x="410" y="300" width="110" height="60" as="geometry"/>
                </mxCell>
                <mxCell id="admin-manage-users" value="" style="endArrow=none;html=1;rounded=0;fontSize=12;startSize=8;endSize=8;exitX=1;exitY=0.3;" parent="1" source="system-admin" target="manage-users" edge="1">
                    <mxGeometry width="50" height="50" relative="1" as="geometry">
                        <mxPoint x="400" y="400" as="sourcePoint"/>
                        <mxPoint x="450" y="350" as="targetPoint"/>
                    </mxGeometry>
                </mxCell>
                <mxCell id="admin-monitor" value="" style="endArrow=none;html=1;rounded=0;fontSize=12;startSize=8;endSize=8;" parent="1" source="system-admin" target="monitor-system" edge="1">
                    <mxGeometry width="50" height="50" relative="1" as="geometry">
                        <mxPoint x="400" y="400" as="sourcePoint"/>
                        <mxPoint x="450" y="350" as="targetPoint"/>
                    </mxGeometry>
                </mxCell>
                <mxCell id="admin-database" value="" style="endArrow=none;html=1;rounded=0;fontSize=12;startSize=8;endSize=8;" parent="1" source="system-admin" target="manage-database" edge="1">
                    <mxGeometry width="50" height="50" relative="1" as="geometry">
                        <mxPoint x="400" y="400" as="sourcePoint"/>
                        <mxPoint x="450" y="350" as="targetPoint"/>
                    </mxGeometry>
                </mxCell>
                <mxCell id="admin-configure" value="" style="endArrow=none;html=1;rounded=0;fontSize=12;startSize=8;endSize=8;" parent="1" source="system-admin" target="configure-system" edge="1">
                    <mxGeometry width="50" height="50" relative="1" as="geometry">
                        <mxPoint x="400" y="400" as="sourcePoint"/>
                        <mxPoint x="450" y="350" as="targetPoint"/>
                    </mxGeometry>
                </mxCell>
                <mxCell id="admin-security" value="" style="endArrow=none;html=1;rounded=0;fontSize=12;startSize=8;endSize=8;" parent="1" source="system-admin" target="security-management" edge="1">
                    <mxGeometry width="50" height="50" relative="1" as="geometry">
                        <mxPoint x="400" y="400" as="sourcePoint"/>
                        <mxPoint x="450" y="350" as="targetPoint"/>
                    </mxGeometry>
                </mxCell>
                <mxCell id="database-connection" value="" style="endArrow=none;html=1;rounded=0;fontSize=12;startSize=8;endSize=8;exitX=0;exitY=0.5;" parent="1" source="database-server" target="maintain-logs" edge="1">
                    <mxGeometry width="50" height="50" relative="1" as="geometry">
                        <mxPoint x="400" y="400" as="sourcePoint"/>
                        <mxPoint x="450" y="350" as="targetPoint"/>
                    </mxGeometry>
                </mxCell>
                <mxCell id="monitoring-connection" value="" style="endArrow=none;html=1;rounded=0;fontSize=12;startSize=8;endSize=8;exitX=0;exitY=0.5;" parent="1" source="monitoring-system" target="generate-reports" edge="1">
                    <mxGeometry width="50" height="50" relative="1" as="geometry">
                        <mxPoint x="400" y="400" as="sourcePoint"/>
                        <mxPoint x="450" y="350" as="targetPoint"/>
                    </mxGeometry>
                </mxCell>
                <mxCell id="scenario-user-management" value="Scenario 1: User Management&#xa;1. Admin creates/modifies users&#xa;2. System backup triggered&#xa;3. Disaster recovery planning&#xa;4. Security compliance check" style="rounded=1;whiteSpace=wrap;html=1;fontSize=9;align=left;verticalAlign=top;fillColor=#f0f9ff;strokeColor=#1890ff" parent="1" vertex="1">
                    <mxGeometry x="380" y="630" width="180" height="90" as="geometry"/>
                </mxCell>
                <mxCell id="scenario-monitoring" value="Scenario 2: System Monitoring&#xa;1. Admin monitors performance&#xa;2. Generate system reports&#xa;3. Performance tuning applied&#xa;4. Capacity planning updates" style="rounded=1;whiteSpace=wrap;html=1;fontSize=9;align=left;verticalAlign=top;fillColor=#f6ffed;strokeColor=#52c41a" parent="1" vertex="1">
                    <mxGeometry x="580" y="630" width="180" height="90" as="geometry"/>
                </mxCell>
                <mxCell id="scenario-maintenance" value="Scenario 3: System Maintenance&#xa;1. Admin configures settings&#xa;2. Automation scripts execution&#xa;3. System updates deployment&#xa;4. Audit compliance verification" style="rounded=1;whiteSpace=wrap;html=1;fontSize=9;align=left;verticalAlign=top;fillColor=#fff7e6;strokeColor=#d48806" parent="1" vertex="1">
                    <mxGeometry x="780" y="630" width="180" height="90" as="geometry"/>
                </mxCell>
                <mxCell id="2" value="&amp;lt;&amp;lt;include&amp;gt;&amp;gt;" style="html=1;verticalAlign=bottom;labelBackgroundColor=none;endArrow=open;endFill=0;dashed=1;entryX=0.5;entryY=0;entryDx=0;entryDy=0;" edge="1" parent="1" source="manage-users" target="maintain-logs">
                    <mxGeometry width="160" relative="1" as="geometry">
                        <mxPoint x="380" y="470" as="sourcePoint"/>
                        <mxPoint x="540" y="470" as="targetPoint"/>
                    </mxGeometry>
                </mxCell>
                <mxCell id="3" value="&amp;lt;&amp;lt;include&amp;gt;&amp;gt;" style="html=1;verticalAlign=bottom;labelBackgroundColor=none;endArrow=open;endFill=0;dashed=1;exitX=1;exitY=0.5;exitDx=0;exitDy=0;" edge="1" parent="1" source="manage-users" target="generate-reports">
                    <mxGeometry width="160" relative="1" as="geometry">
                        <mxPoint x="300" y="205" as="sourcePoint"/>
                        <mxPoint x="680" y="395" as="targetPoint"/>
                    </mxGeometry>
                </mxCell>
                <mxCell id="4" value="&amp;lt;&amp;lt;include&amp;gt;&amp;gt;" style="html=1;verticalAlign=bottom;labelBackgroundColor=none;endArrow=open;endFill=0;dashed=1;exitX=1;exitY=0.5;exitDx=0;exitDy=0;entryX=0;entryY=0.5;entryDx=0;entryDy=0;" edge="1" parent="1" source="manage-database" target="backup-system">
                    <mxGeometry width="160" relative="1" as="geometry">
                        <mxPoint x="300" y="205" as="sourcePoint"/>
                        <mxPoint x="490" y="205" as="targetPoint"/>
                    </mxGeometry>
                </mxCell>
                <mxCell id="5" value="&amp;lt;&amp;lt;include&amp;gt;&amp;gt;" style="html=1;verticalAlign=bottom;labelBackgroundColor=none;endArrow=open;endFill=0;dashed=1;entryX=0.5;entryY=1;entryDx=0;entryDy=0;exitX=1;exitY=0.5;exitDx=0;exitDy=0;" edge="1" parent="1" source="security-management" target="maintain-logs">
                    <mxGeometry width="160" relative="1" as="geometry">
                        <mxPoint x="288" y="226" as="sourcePoint"/>
                        <mxPoint x="680" y="395" as="targetPoint"/>
                    </mxGeometry>
                </mxCell>
                <mxCell id="6" value="" style="endArrow=none;html=1;rounded=0;fontSize=12;startSize=8;endSize=8;entryX=0;entryY=0.5;entryDx=0;entryDy=0;" edge="1" parent="1" source="system-admin" target="update-system">
                    <mxGeometry width="50" height="50" relative="1" as="geometry">
                        <mxPoint x="100" y="379" as="sourcePoint"/>
                        <mxPoint x="218" y="552" as="targetPoint"/>
                    </mxGeometry>
                </mxCell>
                <mxCell id="7" value="&amp;lt;&amp;lt;include&amp;gt;&amp;gt;" style="html=1;verticalAlign=bottom;labelBackgroundColor=none;endArrow=open;endFill=0;dashed=1;exitX=1;exitY=0.5;exitDx=0;exitDy=0;" edge="1" parent="1" source="update-system" target="backup-system">
                    <mxGeometry width="160" relative="1" as="geometry">
                        <mxPoint x="300" y="485" as="sourcePoint"/>
                        <mxPoint x="370" y="485" as="targetPoint"/>
                    </mxGeometry>
                </mxCell>
                <mxCell id="8" value="&amp;lt;&amp;lt;extend&amp;gt;&amp;gt;" style="html=1;verticalAlign=bottom;labelBackgroundColor=none;endArrow=open;endFill=0;dashed=1;exitX=0;exitY=0.5;exitDx=0;exitDy=0;entryX=1;entryY=0.5;entryDx=0;entryDy=0;" edge="1" parent="1" source="performance-tuning" target="monitor-system">
                    <mxGeometry width="160" relative="1" as="geometry">
                        <mxPoint x="420" y="470" as="sourcePoint"/>
                        <mxPoint x="580" y="470" as="targetPoint"/>
                    </mxGeometry>
                </mxCell>
                <mxCell id="9" value="&amp;lt;&amp;lt;extend&amp;gt;&amp;gt;" style="html=1;verticalAlign=bottom;labelBackgroundColor=none;endArrow=open;endFill=0;dashed=1;" edge="1" parent="1" source="capacity-planning" target="monitor-system">
                    <mxGeometry width="160" relative="1" as="geometry">
                        <mxPoint x="425" y="395" as="sourcePoint"/>
                        <mxPoint x="300" y="395" as="targetPoint"/>
                    </mxGeometry>
                </mxCell>
                <mxCell id="10" value="&amp;lt;&amp;lt;extend&amp;gt;&amp;gt;" style="html=1;verticalAlign=bottom;labelBackgroundColor=none;endArrow=open;endFill=0;dashed=1;entryX=1;entryY=0.5;entryDx=0;entryDy=0;exitX=0;exitY=0.5;exitDx=0;exitDy=0;" edge="1" parent="1" source="disaster-recovery" target="backup-system">
                    <mxGeometry width="160" relative="1" as="geometry">
                        <mxPoint x="408" y="340" as="sourcePoint"/>
                        <mxPoint x="292" y="378" as="targetPoint"/>
                    </mxGeometry>
                </mxCell>
                <mxCell id="11" value="&amp;lt;&amp;lt;extend&amp;gt;&amp;gt;" style="html=1;verticalAlign=bottom;labelBackgroundColor=none;endArrow=open;endFill=0;dashed=1;entryX=1;entryY=1;entryDx=0;entryDy=0;" edge="1" parent="1" source="audit-compliance" target="generate-reports">
                    <mxGeometry width="160" relative="1" as="geometry">
                        <mxPoint x="560" y="395" as="sourcePoint"/>
                        <mxPoint x="300" y="395" as="targetPoint"/>
                    </mxGeometry>
                </mxCell>
                <mxCell id="12" value="&amp;lt;&amp;lt;extend&amp;gt;&amp;gt;" style="html=1;verticalAlign=bottom;labelBackgroundColor=none;endArrow=open;endFill=0;dashed=1;exitX=0;exitY=0.5;exitDx=0;exitDy=0;entryX=1;entryY=0.5;entryDx=0;entryDy=0;" edge="1" parent="1" source="automation-scripts" target="configure-system">
                    <mxGeometry width="160" relative="1" as="geometry">
                        <mxPoint x="590" y="395" as="sourcePoint"/>
                        <mxPoint x="300" y="395" as="targetPoint"/>
                    </mxGeometry>
                </mxCell>
            </root>
        </mxGraphModel>
    </diagram>
</mxfile>